<?xml version="1.0" encoding="UTF-8"?>
<svg id="Calque_2" data-name="Calque 2" xmlns="http://www.w3.org/2000/svg" xmlns:xlink="http://www.w3.org/1999/xlink" viewBox="0 0 475.4 386.37">
  <defs>
    <style>
      .cls-1 {
        fill: #0f181e;
      }

      .cls-2 {
        fill: none;
      }

      .cls-3 {
        fill: #3e839b;
      }

      .cls-4 {
        clip-path: url(#clippath);
      }
    </style>
    <clipPath id="clippath">
      <path class="cls-2" d="M-2-2v390.37h479.4V-2H-2ZM227.08,323.72c-3.13.17-6.27.18-9.42.05.6-2.26,1.2-4.64,1.79-7.11,3.53.18,7.15.17,10.86-.03,8.55-.47,16.04-2.39,22.49-5.72.68,3.19,1.4,6.28,2.13,9.24-8.78,1.83-18.05,3.03-27.85,3.58ZM329.7,154.91l-6.5.36c.31-3.17.46-6.94.46-11.31,0-4.37-.17-9.58-.5-15.63-.54-9.67-1.42-17.94-2.64-24.79-.59-3.3-1.49-6.72-2.68-10.27,1.11-.07,2.23-.11,3.35-.11,15.17,0,31.15,6.27,47.48,18.62-13.03,3.88-30.45,18.28-38.96,43.14Z"/>
    </clipPath>
  </defs>
  <g id="Calque_2-2" data-name="Calque 2">
    <g>
      <path class="cls-1" d="M475.4,270.54c-20.37-42.58-41.86-65.36-63.03-77.35-55.7-31.47-110.04,11.19-140.7-33.16-4.43,12.56-8.05,23.42-11.19,33.16-1.61,4.91-3.14,9.58-4.43,13.84-6.52,20.61-9.66,42.1-9.26,63.51.24,11.27,1.45,22.54,3.62,33.73,7,36.06,18.19,66.09,36.62,68.66l-.48.32c-1.05.56-2.5,1.29-4.27,2.17-1.85.81-3.94,1.77-6.28,2.82-.56.24-1.21.48-1.77.64-1.05.4-2.17.89-3.3,1.29-.64.24-1.29.48-2.01.64-.4.16-.89.32-1.37.48-1.69.56-3.38,1.05-5.07,1.53-2.09.56-4.27,1.13-6.36,1.61-5.15,1.05-10.38,1.69-15.7,1.93h-.64c-.89,0-1.85-.08-2.74-.08h-.72c-1.53,0-2.98-.08-4.51-.16-4.51-.16-9.02-.64-13.44-1.45-.72-.16-1.37-.32-2.17-.48-2.74-.56-5.55-1.29-8.29-2.17-3.14-.97-6.2-2.09-9.26-3.38-.24-.08-.56-.24-.89-.32-2.17-.97-4.11-1.85-5.8-2.58-.8-.32-1.53-.72-2.25-1.13-.72-.32-1.21-.56-1.69-.89-.48-.24-.97-.48-1.45-.72v-.08l.97-.16c17.95-3.3,28.9-33.89,35.98-70.35,2.01-10.54,3.22-21.17,3.46-31.88.72-21.09-2.01-42.18-8.05-62.62-1.29-4.59-2.82-9.58-4.43-14.73-2.98-9.82-6.6-20.69-10.79-33.16-30.67,44.35-85,1.69-140.7,33.16-21.25,11.99-42.66,34.77-63.03,77.35,10.46-23.18,24.39-50.87,40.57-77.35,44.92-73.65,107.78-138.05,166.22-70.67,5.39-9.9,10.14-20.12,14.17-30.75,2.17-5.55,4.19-11.35,5.88-17.06-.24-6.6-1.85-13.04-4.99-19.24-3.78-7.65-6.2,9.66-6.2-1.77,0-9.18,1.45-17.63,4.02-24.47l-2.01.08,3.54-3.86c2.82-5.88,6.36-10.3,10.54-12.64L237.7.24l.08-.24,6.2,12.96c3.94,2.25,7.73,6.76,10.3,12.8l3.78,4.02-2.25-.16c2.5,6.84,3.94,15.21,3.94,24.07,0,11.43-2.33-5.88-6.04,1.77-3.06,6.36-4.75,12.88-5.07,19.64,5.07,16.5,11.83,32.44,19.96,47.41,58.44-67.37,121.3-2.98,166.22,70.67,16.18,26.48,30.11,54.17,40.57,77.35Z"/>
      <path class="cls-3" d="M368.02,42.1l-6.87.38c-7.53,15.1-23.21,24.19-39.9,19.39-7.56-2.88-15.1-5.76-22.56-8.64-13.27-4.12-28.1-5.72-44.48-4.82-31.31,1.74-57.66,12.3-79.06,31.69-21.4,19.39-31.41,41.31-30.06,65.75,1.37,24.68,14.32,44.72,38.85,60.11,20.86,10.26,38.8,19.03,53.83,26.33,15.02,7.3,25.11,13.96,30.28,19.99,5.16,6.03,7.95,12.67,8.35,19.93.6,10.89-3.32,20.82-11.76,29.78-8.44,8.97-19.89,13.85-34.34,14.65-15.66.87-29.63-1.69-41.92-7.69-12.29-5.99-21.21-14.36-26.76-25.1-5.55-10.73-9.4-20.29-11.56-28.67-2.16-8.37-3.55-18.37-4.2-29.99-.16-2.9-.31-7.68-.43-14.36-.13-6.67-.17-11.7-.11-15.11l-6.5.36c-12.66,37-34.41,63.39-52.22,67.37h0c11,8.72,18.73,30.72,6.07,67.73l6.14-.34c26.26-43.66,36.84-34.81,50.11-29.32v-.05c10.39,4.62,20.8,9.17,31.28,13.57,15.83,6.64,31.45,9.54,46.87,8.69,35.16-1.95,63.71-12.14,85.64-30.6,21.93-18.45,32.16-40.86,30.7-67.24-.72-13.07-4.82-24.85-12.29-35.36-7.47-10.51-16.06-18.46-25.79-23.88-9.72-5.41-22.4-11.87-38.04-19.37-15.64-7.51-26.69-12.9-33.15-16.19-6.47-3.28-12.22-8.06-17.28-14.33-5.06-6.28-7.8-13.16-8.21-20.66-.64-11.61,4.08-21.16,14.18-28.64,10.09-7.48,21.28-11.56,33.57-12.24,15.9-.88,28.34,1.29,37.32,6.49,8.99,5.21,15.39,11.77,19.21,19.69,3.82,7.92,6.34,15.31,7.57,22.16,1.23,6.85,2.11,15.12,2.64,24.79.34,6.05.5,11.26.5,15.63,0,4.37-.15,8.14-.46,11.31l6.5-.36c10.44-30.53,34.34-45.29,47.03-44.15-10.42-10.8-19.15-38.13-8.71-68.66Z"/>
      <g class="cls-4">
        <path class="cls-1" d="M475.4,270.54c-20.37-42.58-41.86-65.36-63.03-77.35-55.7-31.47-110.04,11.19-140.7-33.16-4.43,12.56-8.05,23.42-11.19,33.16-1.61,4.91-3.14,9.58-4.43,13.84-6.52,20.61-9.66,42.1-9.26,63.51.24,11.27,1.45,22.54,3.62,33.73,7,36.06,18.19,66.09,36.62,68.66l-.48.32c-1.05.56-2.5,1.29-4.27,2.17-1.85.81-3.94,1.77-6.28,2.82-.56.24-1.21.48-1.77.64-1.05.4-2.17.89-3.3,1.29-.64.24-1.29.48-2.01.64-.4.16-.89.32-1.37.48-1.69.56-3.38,1.05-5.07,1.53-2.09.56-4.27,1.13-6.36,1.61-5.15,1.05-10.38,1.69-15.7,1.93h-.64c-.89,0-1.85-.08-2.74-.08h-.72c-1.53,0-2.98-.08-4.51-.16-4.51-.16-9.02-.64-13.44-1.45-.72-.16-1.37-.32-2.17-.48-2.74-.56-5.55-1.29-8.29-2.17-3.14-.97-6.2-2.09-9.26-3.38-.24-.08-.56-.24-.89-.32-2.17-.97-4.11-1.85-5.8-2.58-.8-.32-1.53-.72-2.25-1.13-.72-.32-1.21-.56-1.69-.89-.48-.24-.97-.48-1.45-.72v-.08l.97-.16c17.95-3.3,28.9-33.89,35.98-70.35,2.01-10.54,3.22-21.17,3.46-31.88.72-21.09-2.01-42.18-8.05-62.62-1.29-4.59-2.82-9.58-4.43-14.73-2.98-9.82-6.6-20.69-10.79-33.16-30.67,44.35-85,1.69-140.7,33.16-21.25,11.99-42.66,34.77-63.03,77.35,10.46-23.18,24.39-50.87,40.57-77.35,44.92-73.65,107.78-138.05,166.22-70.67,5.39-9.9,10.14-20.12,14.17-30.75,2.17-5.55,4.19-11.35,5.88-17.06-.24-6.6-1.85-13.04-4.99-19.24-3.78-7.65-6.2,9.66-6.2-1.77,0-9.18,1.45-17.63,4.02-24.47l-2.01.08,3.54-3.86c2.82-5.88,6.36-10.3,10.54-12.64L237.7.24l.08-.24,6.2,12.96c3.94,2.25,7.73,6.76,10.3,12.8l3.78,4.02-2.25-.16c2.5,6.84,3.94,15.21,3.94,24.07,0,11.43-2.33-5.88-6.04,1.77-3.06,6.36-4.75,12.88-5.07,19.64,5.07,16.5,11.83,32.44,19.96,47.41,58.44-67.37,121.3-2.98,166.22,70.67,16.18,26.48,30.11,54.17,40.57,77.35Z"/>
      </g>
    </g>
  </g>
</svg>